<svg width="21" height="21" viewBox="0 0 21 21" fill="none" xmlns="http://www.w3.org/2000/svg">
<path d="M1.37382 18.9314L7.73782 12.5674M15.7518 9.7374L13.8468 15.4534C13.8163 15.5448 13.7642 15.6275 13.6949 15.6946C13.6256 15.7616 13.5412 15.8109 13.4488 15.8384L1.77082 19.3104C1.66561 19.3417 1.55385 19.3434 1.44769 19.3156C1.34154 19.2877 1.24505 19.2313 1.16875 19.1524C1.09244 19.0735 1.03923 18.9752 1.01492 18.8682C0.990596 18.7612 0.996098 18.6495 1.03082 18.5454L4.82282 7.1714C4.85 7.08974 4.89443 7.01487 4.95309 6.9519C5.01176 6.88892 5.08329 6.8393 5.16282 6.8064L10.5498 4.5884C10.6593 4.54317 10.7798 4.53138 10.896 4.55452C11.0122 4.57765 11.119 4.63468 11.2028 4.7184L15.6068 9.1234C15.6856 9.20219 15.7409 9.30136 15.7665 9.40981C15.7921 9.51826 15.7871 9.63169 15.7518 9.7374Z" stroke="#B7C1BC" stroke-width="1.5" stroke-linecap="round" stroke-linejoin="round"/>
<path d="M16.4825 1.51214L18.8465 3.87614C19.0242 4.0461 19.1661 4.24983 19.2639 4.47538C19.3617 4.70093 19.4135 4.94375 19.4163 5.18959C19.419 5.43543 19.3726 5.67934 19.2797 5.90699C19.1869 6.13465 19.0495 6.34147 18.8757 6.51532C18.7018 6.68916 18.495 6.82653 18.2674 6.91936C18.0397 7.01219 17.7958 7.05861 17.55 7.05589C17.3041 7.05317 17.0613 7.00137 16.8358 6.90353C16.6102 6.80569 16.4065 6.66379 16.2365 6.48614L13.8715 4.12214C13.5379 3.77348 13.3542 3.30808 13.3595 2.82559C13.3648 2.3431 13.5589 1.88187 13.9001 1.54068C14.2412 1.19949 14.7025 1.00545 15.185 1.00011C15.6675 0.994778 16.1339 1.17857 16.4825 1.51214Z" fill="#B7C1BC" stroke="#0B4125" stroke-width="1.5" stroke-linecap="round" stroke-linejoin="round"/>
<path d="M9.86018 10.4462C9.72181 10.3029 9.55629 10.1887 9.37329 10.1101C9.19028 10.0314 8.99345 9.99007 8.79428 9.98834C8.59512 9.98661 8.3976 10.0246 8.21325 10.1C8.02891 10.1754 7.86143 10.2868 7.72059 10.4276C7.57975 10.5685 7.46837 10.7359 7.39295 10.9203C7.31753 11.1046 7.27958 11.3021 7.28131 11.5013C7.28304 11.7005 7.32442 11.8973 7.40303 12.0803C7.48164 12.2633 7.59592 12.4288 7.73918 12.5672C8.02209 12.8405 8.40099 12.9916 8.79428 12.9882C9.18758 12.9848 9.5638 12.8271 9.84191 12.5489C10.12 12.2708 10.2778 11.8946 10.2812 11.5013C10.2846 11.108 10.1334 10.7291 9.86018 10.4462Z" stroke="#B7C1BC" stroke-width="1.5" stroke-linecap="round" stroke-linejoin="round"/>
</svg>
