<svg width="91" height="57" viewBox="0 0 91 57" fill="none" xmlns="http://www.w3.org/2000/svg">
<g id="Asset 3 1" clip-path="url(#clip0_203_131)">
<g id="Layer 2">
<g id="Layer 1">
<path id="Vector" d="M62.6421 0.000586458C56.4499 -0.00798979 50.4268 2.0309 45.5016 5.80288C41.2953 2.59016 36.2798 0.621907 31.0203 0.119901C25.7608 -0.382104 20.4663 0.602091 15.7334 2.96159C11.0006 5.32108 7.0174 8.96211 4.23275 13.4744C1.44811 17.9867 -0.0273437 23.1909 -0.0273438 28.5006C-0.0273437 33.8103 1.44811 39.0145 4.23275 43.5268C7.0174 48.0391 11.0006 51.6801 15.7334 54.0396C20.4663 56.3991 25.7608 57.3833 31.0203 56.8813C36.2798 56.3793 41.2953 54.411 45.5016 51.1983C49.0864 53.9391 53.2692 55.7825 57.7037 56.576C62.1381 57.3695 66.6969 57.0902 71.0027 55.7613C75.3084 54.4324 79.2374 52.0921 82.4645 48.934C85.6916 45.7759 88.124 41.8909 89.5604 37.6004C90.9968 33.3099 91.396 28.7373 90.7248 24.261C90.0536 19.7846 88.3315 15.5333 85.7008 11.8587C83.0701 8.18419 79.6066 5.19208 75.5968 3.13002C71.587 1.06795 67.1463 -0.00478092 62.6421 0.000586458Z" fill="#0B4125"/>
<path id="Vector_2" d="M20.8904 40.2481C20.6693 40.2481 20.4732 40.2481 20.2438 40.2271L19.7266 40.1936L20.3481 37.3134C20.5169 37.336 20.6868 37.35 20.857 37.3553C21.0573 37.3553 21.2742 37.3846 21.5036 37.3846C21.8421 37.3972 22.1786 37.3267 22.4839 37.1792C22.713 37.0575 22.9069 36.8785 23.047 36.6594C23.1667 36.4768 23.2515 36.2735 23.2973 36.0598L25.9962 23.3191H29.9299L27.2393 36.1479C27.1292 36.6532 26.9583 37.1431 26.7304 37.6068C26.4716 38.1157 26.1125 38.5665 25.675 38.9316C25.1292 39.3751 24.4989 39.7018 23.8229 39.8917C22.8684 40.1561 21.8801 40.2762 20.8904 40.2481ZM28.399 21.6547C27.8851 21.6677 27.3797 21.5213 26.9515 21.2355C26.7575 21.1051 26.6003 20.9266 26.4951 20.7173C26.3898 20.508 26.3402 20.2749 26.3508 20.0406C26.3414 19.6563 26.4636 19.2803 26.697 18.9758C26.9325 18.6773 27.2418 18.446 27.5939 18.305C27.9661 18.1532 28.3644 18.0763 28.7661 18.0786C29.277 18.0687 29.7788 18.2149 30.2052 18.4978C30.4016 18.6253 30.5612 18.8024 30.6681 19.0114C30.775 19.2203 30.8254 19.4538 30.8143 19.6885C30.8182 20.0773 30.6902 20.4558 30.4513 20.7617C30.2177 21.0604 29.9098 21.2918 29.5587 21.4325C29.1866 21.585 28.7882 21.6619 28.3865 21.6589L28.399 21.6547Z" fill="#F1F2F2"/>
<path id="Vector_3" d="M32.1557 30.6392L33.5948 28.325L37.8997 28.1573L37.4826 28.7359C37.5235 28.5986 37.5542 28.4585 37.5744 28.3166C37.5943 28.1891 37.6041 28.0601 37.6036 27.9309C37.6069 27.6376 37.5335 27.3484 37.3908 27.0925C37.2309 26.8225 36.992 26.6088 36.7067 26.4804C36.3152 26.2986 35.8861 26.2138 35.4553 26.233C34.9152 26.2232 34.38 26.3379 33.891 26.5684C33.4433 26.7836 33.0541 27.1043 32.7563 27.5033C32.4423 27.9221 32.2076 28.3953 32.0639 28.8994C31.9007 29.4617 31.8206 30.0451 31.8261 30.6309C31.815 31.0254 31.8905 31.4176 32.0472 31.7796C32.1955 32.1045 32.4523 32.3671 32.773 32.5216C33.1996 32.7097 33.6634 32.7972 34.1288 32.7774C34.4914 32.7822 34.8536 32.7484 35.2092 32.6767C35.4783 32.6207 35.7401 32.5335 35.9892 32.4168C36.177 32.3267 36.3489 32.2063 36.4981 32.0605C36.6082 31.9531 36.6911 31.8209 36.7401 31.6748H40.6487C40.4877 32.2151 40.2243 32.7191 39.8728 33.1589C39.4732 33.6671 38.9908 34.1037 38.4462 34.4501C37.8071 34.8555 37.111 35.1621 36.3813 35.3599C35.5049 35.592 34.6012 35.7034 33.6949 35.6911C32.6402 35.7212 31.5935 35.4984 30.6414 35.0413C29.8376 34.6425 29.1676 34.0157 28.7142 33.2385C28.2707 32.4339 28.0476 31.5253 28.0676 30.6057C28.0535 29.597 28.2525 28.5967 28.6516 27.671C29.0351 26.8013 29.5932 26.0205 30.291 25.3778C31.0073 24.734 31.8381 24.232 32.7397 23.8978C33.6952 23.5413 34.7072 23.3623 35.7264 23.3696C36.7716 23.342 37.8095 23.5512 38.7632 23.9817C39.5621 24.3556 40.2348 24.956 40.6988 25.709C41.1646 26.5073 41.3987 27.4208 41.3745 28.346C41.3772 28.7373 41.3507 29.1283 41.2953 29.5157C41.243 29.8981 41.1536 30.2744 41.0283 30.6392H32.1557Z" fill="#F1F2F2"/>
<path id="Vector_4" d="M39.6875 35.139L42.1904 23.3206H46.1324L43.6295 35.139H39.6875ZM47.0626 35.139L47.9928 30.7957C48.1597 29.9949 48.289 29.3493 48.3808 28.8504C48.4564 28.462 48.4996 28.0679 48.5101 27.6723C48.5134 27.4543 48.4796 27.2374 48.41 27.0309C48.3489 26.8448 48.2249 26.6861 48.0596 26.5823C47.8401 26.4578 47.5895 26.3995 47.3379 26.4146C47.0334 26.4123 46.7328 26.4843 46.4619 26.6242C46.1902 26.7722 45.9494 26.9715 45.7528 27.2111C45.5359 27.4781 45.3576 27.7745 45.223 28.0916C45.0724 28.4408 44.9577 28.8046 44.8809 29.1774L44.1843 28.297C44.3779 27.3352 44.7364 26.4145 45.2439 25.5761C45.6971 24.8354 46.3172 24.2121 47.0543 23.7566C47.8055 23.3162 48.6625 23.0914 49.5321 23.1068C50.177 23.0779 50.8178 23.2227 51.3884 23.526C51.8281 23.7814 52.1724 24.1746 52.3687 24.6454C52.571 25.1487 52.6717 25.6874 52.6649 26.2301C52.6613 26.6119 52.6307 26.993 52.5731 27.3705C52.5147 27.7897 52.4229 28.3305 52.2978 28.9468C52.1726 29.5631 52.0141 30.3219 51.8222 31.2275L50.9879 35.1683L47.0626 35.139ZM54.3918 35.139L55.3304 30.7957C55.4556 30.2045 55.5598 29.7056 55.6349 29.3074C55.71 28.9091 55.7726 28.5737 55.806 28.3096C55.8409 28.0876 55.8604 27.8635 55.8644 27.6388C55.8687 27.42 55.8319 27.2024 55.7559 26.9973C55.6859 26.8202 55.5578 26.6723 55.393 26.5781C55.1689 26.4628 54.9185 26.4092 54.6671 26.423C54.3626 26.4207 54.062 26.4926 53.7911 26.6326C53.5204 26.7785 53.282 26.9782 53.0903 27.2195C52.8721 27.4825 52.6936 27.7763 52.5606 28.0916C52.4196 28.4331 52.3093 28.7867 52.231 29.148L51.5219 28.2676C51.7127 27.3089 52.0684 26.391 52.5731 25.5551C53.0216 24.8143 53.6412 24.1931 54.3793 23.744C55.1277 23.3041 55.9819 23.0793 56.8488 23.0942C57.4966 23.0622 58.141 23.2071 58.7134 23.5134C59.1568 23.7712 59.5062 24.165 59.7104 24.637C59.9191 25.143 60.0228 25.6866 60.0149 26.2343C60.0111 26.6185 59.9846 27.002 59.9357 27.383C59.8856 27.8023 59.8022 28.3096 59.6854 28.9049C59.5686 29.5002 59.4184 30.2465 59.2349 31.1436L58.338 35.139H54.3918Z" fill="#F1F2F2"/>
<path id="Vector_5" d="M64.502 35.4877C63.4644 35.5121 62.4351 35.2954 61.4944 34.8547C60.6835 34.4659 60.0003 33.852 59.5255 33.0855C59.0548 32.284 58.8164 31.3663 58.8372 30.4359C58.823 29.4271 59.022 28.4268 59.4212 27.5012C59.8034 26.6281 60.3599 25.8433 61.0564 25.1953C61.7633 24.5402 62.5909 24.0304 63.4925 23.6945C64.4463 23.337 65.4572 23.1579 66.4751 23.1662C67.5143 23.1398 68.5453 23.3566 69.4869 23.7993C70.2976 24.1903 70.9805 24.8055 71.4558 25.5727C71.9351 26.3622 72.181 27.2724 72.1649 28.1971C72.1793 29.2148 71.9773 30.2239 71.5726 31.1569C71.1926 32.0313 70.6357 32.8165 69.9374 33.4628C69.2285 34.1143 68.4014 34.6224 67.5013 34.9595C66.542 35.3182 65.5255 35.4973 64.502 35.4877ZM64.9191 32.4398C65.5185 32.4471 66.1039 32.2588 66.5877 31.9032C67.0822 31.535 67.4708 31.0418 67.714 30.4736C67.984 29.8467 68.119 29.1694 68.1103 28.4864C68.121 28.0723 68.0487 27.6602 67.8976 27.2748C67.7615 26.9521 67.5261 26.6817 67.226 26.5034C66.8702 26.3071 66.4676 26.2128 66.0621 26.2309C65.6032 26.2242 65.1495 26.3292 64.7398 26.5369C64.3455 26.7395 63.9997 27.0255 63.7261 27.3754C63.4374 27.7524 63.2184 28.1784 63.0795 28.6331C62.9262 29.1241 62.8502 29.6362 62.8543 30.1508C62.8184 30.751 62.9942 31.3448 63.3507 31.8277C63.5477 32.043 63.791 32.21 64.0622 32.3161C64.3333 32.4222 64.625 32.4645 64.915 32.4398H64.9191Z" fill="#F1F2F2"/>
</g>
</g>
</g>
<defs>
<clipPath id="clip0_203_131">
<rect width="91" height="57" fill="white"/>
</clipPath>
</defs>
</svg>
