<svg width="24" height="24" viewBox="0 0 24 24" fill="none" xmlns="http://www.w3.org/2000/svg">
<path d="M12.4949 10.9383L12.3099 10.2115L12.4949 10.9383ZM9.25 9C9.25 9.41421 9.58579 9.75 10 9.75C10.4142 9.75 10.75 9.41421 10.75 9H9.25ZM11.25 13C11.25 13.4142 11.5858 13.75 12 13.75C12.4142 13.75 12.75 13.4142 12.75 13H11.25ZM12.75 16C12.75 15.5858 12.4142 15.25 12 15.25C11.5858 15.25 11.25 15.5858 11.25 16H12.75ZM11.25 17C11.25 17.4142 11.5858 17.75 12 17.75C12.4142 17.75 12.75 17.4142 12.75 17H11.25ZM20.25 12C20.25 16.5563 16.5563 20.25 12 20.25V21.75C17.3848 21.75 21.75 17.3848 21.75 12H20.25ZM12 20.25C7.44365 20.25 3.75 16.5563 3.75 12H2.25C2.25 17.3848 6.61522 21.75 12 21.75V20.25ZM3.75 12C3.75 7.44365 7.44365 3.75 12 3.75V2.25C6.61522 2.25 2.25 6.61522 2.25 12H3.75ZM12 3.75C16.5563 3.75 20.25 7.44365 20.25 12H21.75C21.75 6.61522 17.3848 2.25 12 2.25V3.75ZM13.25 9C13.25 9.58257 12.8508 10.0738 12.3099 10.2115L12.68 11.6651C13.8695 11.3623 14.75 10.2849 14.75 9H13.25ZM10.75 9C10.75 8.30964 11.3096 7.75 12 7.75V6.25C10.4812 6.25 9.25 7.48122 9.25 9H10.75ZM12 7.75C12.6904 7.75 13.25 8.30964 13.25 9H14.75C14.75 7.48122 13.5188 6.25 12 6.25V7.75ZM11.25 11.5V13H12.75V11.5H11.25ZM12.3099 10.2115C11.8223 10.3356 11.25 10.7773 11.25 11.5H12.75C12.75 11.5784 12.7155 11.6312 12.6971 11.651C12.6887 11.6602 12.6829 11.6636 12.6818 11.6643C12.6805 11.665 12.6803 11.665 12.68 11.6651L12.3099 10.2115ZM11.25 16V17H12.75V16H11.25Z" fill="#B7C1BC"/>
</svg>
