<svg width="30" height="31" viewBox="0 0 30 31" fill="none" xmlns="http://www.w3.org/2000/svg">
<g filter="url(#filter0_d_140_5143)">
<path d="M13.5158 3.29132C14.2121 2.2154 15.7864 2.21539 16.4827 3.29131L17.1155 4.26895C17.5141 4.8848 18.2517 5.19033 18.969 5.03671L20.1077 4.79284C21.3609 4.52444 22.474 5.63759 22.2057 6.89078L21.9618 8.02949C21.8082 8.74681 22.1137 9.48444 22.7295 9.88303L23.7072 10.5158C24.7831 11.2121 24.7831 12.7864 23.7072 13.4827L22.7295 14.1155C22.1137 14.5141 21.8082 15.2517 21.9618 15.969L22.2057 17.1077C22.474 18.3609 21.3609 19.474 20.1077 19.2057L18.969 18.9618C18.2517 18.8082 17.5141 19.1137 17.1155 19.7295L16.4827 20.7072C15.7864 21.7831 14.2121 21.7831 13.5158 20.7072L12.883 19.7295C12.4844 19.1137 11.7468 18.8082 11.0295 18.9618L9.89079 19.2057C8.6376 19.474 7.52444 18.3609 7.79283 17.1077L8.03671 15.969C8.19033 15.2517 7.8848 14.5141 7.26895 14.1155L6.29132 13.4827C5.2154 12.7864 5.21539 11.2121 6.29131 10.5158L7.26895 9.88303C7.8848 9.48444 8.19033 8.74681 8.03671 8.0295L7.79284 6.89078C7.52444 5.6376 8.63759 4.52444 9.89078 4.79283L11.0295 5.03671C11.7468 5.19033 12.4844 4.8848 12.883 4.26895L13.5158 3.29132Z" stroke="#B7C1BC" stroke-width="1.5"/>
<path d="M17.9992 11.9992C17.9992 13.6561 16.6561 14.9992 14.9992 14.9992C13.3424 14.9992 11.9992 13.6561 11.9992 11.9992C11.9992 10.3424 13.3424 8.99925 14.9992 8.99925C16.6561 8.99925 17.9992 10.3424 17.9992 11.9992Z" stroke="#B7C1BC" stroke-width="1.5"/>
</g>
<defs>
<filter id="filter0_d_140_5143" x="-1" y="0" width="32" height="32" filterUnits="userSpaceOnUse" color-interpolation-filters="sRGB">
<feFlood flood-opacity="0" result="BackgroundImageFix"/>
<feColorMatrix in="SourceAlpha" type="matrix" values="0 0 0 0 0 0 0 0 0 0 0 0 0 0 0 0 0 0 127 0" result="hardAlpha"/>
<feOffset dy="4"/>
<feGaussianBlur stdDeviation="2"/>
<feComposite in2="hardAlpha" operator="out"/>
<feColorMatrix type="matrix" values="0 0 0 0 0 0 0 0 0 0 0 0 0 0 0 0 0 0 0.25 0"/>
<feBlend mode="normal" in2="BackgroundImageFix" result="effect1_dropShadow_140_5143"/>
<feBlend mode="normal" in="SourceGraphic" in2="effect1_dropShadow_140_5143" result="shape"/>
</filter>
</defs>
</svg>
