<svg width="20" height="20" viewBox="0 0 20 20" fill="none" xmlns="http://www.w3.org/2000/svg">
<path d="M9.61207 0V0.655172C4.75862 0.853879 0.853879 4.75862 0.655172 9.61207H0V10.3879H0.655172C0.853879 15.2414 4.75862 19.1466 9.61207 19.3448V20H10.3879V19.3448C15.2414 19.1466 19.1466 15.2414 19.3448 10.3879H20V9.61207H19.3448C19.1466 4.75862 15.2414 0.853879 10.3879 0.655172V0H9.61207ZM9.61207 1.43147V2.75862H10.3879V1.43147C14.819 1.62845 18.3707 5.18103 18.569 9.61207H17.2414V10.3879H18.569C18.3707 14.819 14.819 18.3707 10.3879 18.569V17.2414H9.61207V18.569C5.18103 18.3707 1.62845 14.819 1.43147 10.3879H2.75862V9.61207H1.43147C1.62845 5.18103 5.18103 1.62845 9.61207 1.43147ZM10 3.7069C9.26837 3.7069 8.5667 3.99754 8.04936 4.51488C7.53202 5.03222 7.24138 5.73389 7.24138 6.46552C7.24159 6.99969 7.39688 7.52232 7.68841 7.96993C7.97993 8.41755 8.39514 8.7709 8.88362 8.98707C6.40517 11.0733 5.94397 14.0345 6.55172 16.4655H13.4483C14.056 14.0345 13.5905 11.069 11.1164 8.98276C11.6042 8.76688 12.0189 8.4142 12.3104 7.96743C12.6019 7.52066 12.7576 6.99896 12.7586 6.46552C12.7586 5.73389 12.468 5.03222 11.9506 4.51488C11.4333 3.99754 10.7316 3.7069 10 3.7069Z" fill="#8B9C94"/>
</svg>
