<svg width="152" height="153" viewBox="0 0 152 153" fill="none" xmlns="http://www.w3.org/2000/svg">
<g clip-path="url(#clip0_138_4836)">
<path fill-rule="evenodd" clip-rule="evenodd" d="M97.1117 44.6963C90.8626 40.4934 83.5156 38.25 76 38.25V0C91.0313 0 105.725 4.48665 118.223 12.8926C130.722 21.2985 140.462 33.2462 146.215 47.2246C151.967 61.2031 153.472 76.5849 150.54 91.4244C147.607 106.264 140.369 119.895 129.74 130.594C119.111 141.292 105.569 148.578 90.8268 151.53C76.0844 154.482 60.803 152.967 46.9159 147.177C33.0289 141.387 21.1593 131.582 12.8083 119.001C4.45732 106.421 0 91.6302 0 76.5H38C38 84.0651 40.2287 91.4603 44.4041 97.7506C48.5796 104.041 54.5144 108.943 61.4582 111.838C68.4015 114.734 76.0422 115.491 83.4134 114.015C90.7847 112.539 97.5555 108.896 102.87 103.547C108.184 98.1973 111.804 91.3819 113.27 83.9622C114.736 76.5425 113.984 68.8515 111.107 61.8625C108.231 54.8731 103.361 48.8992 97.1117 44.6963Z" fill="#007DFC"/>
<path fill-rule="evenodd" clip-rule="evenodd" d="M38 1.6567e-05C38 5.02308 37.0171 9.99696 35.1074 14.6376C33.1977 19.2784 30.3987 23.495 26.87 27.0469C23.3414 30.5987 19.1524 33.4162 14.542 35.3384C9.93158 37.2606 4.99022 38.25 1.66102e-06 38.25L0 76.5C9.98045 76.5 19.8632 74.5213 29.084 70.6768C38.3047 66.8323 46.683 61.1973 53.74 54.0935C60.7973 46.9901 66.3955 38.5568 70.2149 29.2753C74.0342 19.9939 76 10.0461 76 0L38 1.6567e-05Z" fill="#007DFC"/>
</g>
<defs>
<clipPath id="clip0_138_4836">
<rect width="152" height="153" fill="white"/>
</clipPath>
</defs>
</svg>
