<svg width="1262" height="790" viewBox="0 0 1262 790" fill="none" xmlns="http://www.w3.org/2000/svg">
<path d="M868.732 -0.00078088C782.858 -0.119645 699.33 28.1387 631.026 80.417C572.693 35.8898 503.137 8.6105 430.198 1.65288C357.258 -5.30473 283.834 8.33586 218.198 41.0377C152.562 73.7395 97.3225 124.203 58.7046 186.741C20.0867 249.28 -0.375 321.408 -0.375 394.999C-0.375 468.59 20.0867 540.718 58.7046 603.257C97.3225 665.796 152.562 716.259 218.198 748.961C283.834 781.663 357.258 795.303 430.198 788.346C503.137 781.388 572.693 754.109 631.026 709.581C680.741 747.568 738.748 773.117 800.246 784.114C861.744 795.112 924.966 791.241 984.679 772.823C1044.39 754.405 1098.88 721.969 1143.63 678.199C1188.39 634.429 1222.12 580.584 1242.04 521.119C1261.96 461.654 1267.5 398.28 1258.19 336.239C1248.88 274.199 1225 215.277 1188.51 164.349C1152.03 113.421 1104 71.9515 1048.39 43.372C992.782 14.7925 931.198 -0.0751709 868.732 -0.00078088Z" fill="#0B4125" fill-opacity="0.5"/>
</svg>
