<svg width="12" height="8" viewBox="0 0 12 8" fill="none" xmlns="http://www.w3.org/2000/svg">
<g clip-path="url(#clip0_80_3032)">
<path d="M4.83761 3.5905C5.50069 3.2532 5.84683 2.74281 5.84683 1.94837C5.84683 0.381685 4.75003 0 3.48433 0H0V7.86449H3.58233C4.92518 7.86449 6.18672 7.17879 6.18672 5.58104C6.18672 4.59354 5.74674 3.86345 4.83761 3.5905ZM1.62435 1.34256H3.14861C3.73455 1.34256 4.2621 1.51786 4.2621 2.24129C4.2621 2.90924 3.85132 3.17775 3.27164 3.17775H1.62435V1.34256ZM3.3613 6.52859H1.62435V4.36275H3.39467C4.10988 4.36275 4.56236 4.68008 4.56236 5.48562C4.56236 6.28005 4.0223 6.52859 3.3613 6.52859ZM10.8367 1.18722H7.84026V0.412753H10.8367V1.18722ZM12.0106 5.09949C12.0106 3.4152 11.0848 2.01051 9.40623 2.01051C7.77562 2.01051 6.66839 3.31534 6.66839 5.02404C6.66839 6.7971 7.71723 8.01317 9.40623 8.01317C10.6844 8.01317 11.5123 7.4007 11.9105 6.09809H10.6135C10.4738 6.58407 9.89833 6.84148 9.4521 6.84148C8.59092 6.84148 8.13844 6.30446 8.13844 5.39241H11.9981C12.0044 5.29921 12.0106 5.19935 12.0106 5.09949ZM8.14052 4.40713C8.18848 3.6593 8.65556 3.19107 9.36035 3.19107C10.0985 3.19107 10.4697 3.65264 10.5322 4.40713H8.14052Z" fill="#141617"/>
</g>
<defs>
<clipPath id="clip0_80_3032">
<rect width="12" height="8" fill="white"/>
</clipPath>
</defs>
</svg>
