<svg width="28" height="28" viewBox="0 0 28 28" fill="none" xmlns="http://www.w3.org/2000/svg">
<g id="circle-user" clip-path="url(#clip0_55_4592)">
<path id="circle-user_2" d="M14.0189 6.13325C11.3575 6.13325 9.19987 8.29084 9.19987 10.9522C9.19987 13.6136 11.3575 15.7712 14.0189 15.7712C16.6803 15.7712 18.8378 13.6136 18.8378 10.9522C18.8378 8.29084 16.6803 6.13325 14.0189 6.13325ZM14.0189 13.1427C12.8108 13.1427 11.8284 12.1597 11.8284 10.9522C11.8284 9.74201 12.8086 8.76179 14.0189 8.76179C15.2291 8.76179 16.2093 9.7442 16.2093 10.9522C16.2093 12.1625 15.2291 13.1427 14.0189 13.1427ZM14.0189 0C6.27563 0 0 6.27563 0 14.0189C0 21.7621 6.27563 28.0377 14.0189 28.0377C21.7621 28.0377 28.0377 21.7621 28.0377 14.0189C28.0377 6.27563 21.7621 0 14.0189 0ZM14.0189 25.4092C11.4599 25.4092 9.10349 24.5505 7.20109 23.1207C8.14846 21.3021 9.98843 20.1521 12.0584 20.1521H15.9842C18.0515 20.1521 19.8893 21.3026 20.8405 23.1207C18.9364 24.5494 16.5762 25.4092 14.0189 25.4092ZM22.7916 21.2747C21.313 18.9638 18.794 17.5236 15.9793 17.5236H12.0584C9.24587 17.5236 6.72741 18.9611 5.24612 21.2736C3.61205 19.3033 2.62854 16.7733 2.62854 14.0189C2.62854 7.73775 7.7383 2.62854 14.0189 2.62854C20.2994 2.62854 25.4092 7.7383 25.4092 14.0189C25.4092 16.7733 24.4235 19.3033 22.7916 21.2747Z" fill="white"/>
</g>
<defs>
<clipPath id="clip0_55_4592">
<rect width="28" height="28" fill="white"/>
</clipPath>
</defs>
</svg>
