<svg width="27" height="28" viewBox="0 0 27 28" fill="none" xmlns="http://www.w3.org/2000/svg">
<path id="instagram" d="M13.4282 7.36163C9.78362 7.36163 6.84392 10.3013 6.84392 13.9459C6.84392 17.5904 9.78362 20.5301 13.4282 20.5301C17.0727 20.5301 20.0124 17.5904 20.0124 13.9459C20.0124 10.3013 17.0727 7.36163 13.4282 7.36163ZM13.4282 18.2265C11.073 18.2265 9.14754 16.3068 9.14754 13.9459C9.14754 11.5849 11.0672 9.66525 13.4282 9.66525C15.7891 9.66525 17.7088 11.5849 17.7088 13.9459C17.7088 16.3068 15.7833 18.2265 13.4282 18.2265ZM21.8175 7.0923C21.8175 7.94613 21.1298 8.62804 20.2817 8.62804C19.4279 8.62804 18.746 7.9404 18.746 7.0923C18.746 6.2442 19.4336 5.55655 20.2817 5.55655C21.1298 5.55655 21.8175 6.2442 21.8175 7.0923ZM26.1783 8.65097C26.0809 6.59375 25.611 4.77149 24.1039 3.27013C22.6025 1.76876 20.7803 1.29887 18.723 1.19572C16.6028 1.07538 10.2478 1.07538 8.12753 1.19572C6.07605 1.29314 4.25378 1.76303 2.74669 3.2644C1.23959 4.76576 0.775432 6.58802 0.672285 8.64524C0.551947 10.7655 0.551947 17.1205 0.672285 19.2407C0.769702 21.298 1.23959 23.1202 2.74669 24.6216C4.25378 26.1229 6.07032 26.5928 8.12753 26.696C10.2478 26.8163 16.6028 26.8163 18.723 26.696C20.7803 26.5986 22.6025 26.1287 24.1039 24.6216C25.6053 23.1202 26.0751 21.298 26.1783 19.2407C26.2986 17.1205 26.2986 10.7712 26.1783 8.65097ZM23.4392 21.5157C22.9922 22.6389 22.1269 23.5042 20.998 23.9569C19.3075 24.6273 15.2963 24.4726 13.4282 24.4726C11.56 24.4726 7.54303 24.6216 5.85829 23.9569C4.73514 23.5099 3.86985 22.6446 3.41714 21.5157C2.74669 19.8252 2.90141 15.814 2.90141 13.9459C2.90141 12.0777 2.75242 8.06074 3.41714 6.376C3.86411 5.25284 4.7294 4.38755 5.85829 3.93485C7.54876 3.2644 11.56 3.41912 13.4282 3.41912C15.2963 3.41912 19.3133 3.27013 20.998 3.93485C22.1212 4.38182 22.9865 5.24711 23.4392 6.376C24.1096 8.06647 23.9549 12.0777 23.9549 13.9459C23.9549 15.814 24.1096 19.831 23.4392 21.5157Z" stroke="white" stroke-width="0.5" stroke-linecap="round"/>
</svg>
