<svg width="64" height="40" viewBox="0 0 64 40" fill="none" xmlns="http://www.w3.org/2000/svg">
<g id="Asset 3 1" clip-path="url(#clip0_140_5256)">
<g id="Layer 2">
<g id="Layer 1">
<path id="Vector" d="M44.0596 3.46317e-05C39.7046 -0.00598379 35.4686 1.42482 32.0047 4.07182C29.0464 1.81728 25.5191 0.436049 21.8201 0.0837644C18.1211 -0.26852 14.3975 0.422143 11.0689 2.07793C7.74027 3.73372 4.93892 6.28882 2.98049 9.45533C1.02205 12.6218 -0.015625 16.2739 -0.015625 20C-0.015625 23.7262 1.02205 27.3782 2.98049 30.5447C4.93892 33.7112 7.74027 36.2663 11.0689 37.9221C14.3975 39.5779 18.1211 40.2686 21.8201 39.9163C25.5191 39.564 29.0464 38.1828 32.0047 35.9282C34.5259 37.8516 37.4676 39.1452 40.5864 39.7021C43.7052 40.2589 46.9113 40.0629 49.9396 39.1304C52.9678 38.1978 55.731 36.5555 58.0006 34.3393C60.2702 32.1231 61.9809 29.3967 62.9912 26.3859C64.0014 23.375 64.2821 20.1661 63.8101 17.0249C63.338 13.8836 62.1268 10.9002 60.2767 8.32154C58.4266 5.74291 55.9907 3.64319 53.1706 2.19613C50.3505 0.749064 47.2274 -0.00373195 44.0596 3.46317e-05Z" fill="#0B4125"/>
<path id="Vector_2" d="M14.6935 28.2434C14.538 28.2434 14.4001 28.2434 14.2388 28.2287L13.875 28.2051L14.3121 26.184C14.4309 26.1999 14.5503 26.2097 14.67 26.2134C14.8109 26.2134 14.9634 26.234 15.1248 26.234C15.3629 26.2428 15.5995 26.1933 15.8142 26.0898C15.9753 26.0044 16.1118 25.8788 16.2103 25.725C16.2944 25.5969 16.3541 25.4543 16.3863 25.3043L18.2844 16.3634H21.051L19.1587 25.3661C19.0813 25.7207 18.9611 26.0645 18.8008 26.3899C18.6187 26.747 18.3662 27.0633 18.0585 27.3196C17.6746 27.6308 17.2314 27.8601 16.756 27.9933C16.0847 28.1789 15.3896 28.2632 14.6935 28.2434ZM19.9743 15.1954C19.6129 15.2045 19.2574 15.1018 18.9563 14.9012C18.8199 14.8098 18.7093 14.6845 18.6353 14.5376C18.5613 14.3907 18.5263 14.2272 18.5338 14.0628C18.5272 13.793 18.6131 13.5292 18.7773 13.3155C18.9429 13.106 19.1604 12.9437 19.4081 12.8447C19.6699 12.7382 19.9499 12.6842 20.2325 12.6859C20.5918 12.6789 20.9447 12.7815 21.2446 12.9801C21.3827 13.0695 21.495 13.1938 21.5701 13.3404C21.6453 13.4871 21.6808 13.6509 21.6729 13.8156C21.6757 14.0885 21.5857 14.3541 21.4177 14.5688C21.2534 14.7784 21.0368 14.9407 20.7899 15.0395C20.5282 15.1465 20.248 15.2005 19.9655 15.1984L19.9743 15.1954Z" fill="#F1F2F2"/>
<path id="Vector_3" d="M22.6181 21.4997L23.6303 19.8757L26.6579 19.758L26.3646 20.164C26.3933 20.0677 26.4149 19.9693 26.4291 19.8698C26.4431 19.7803 26.45 19.6897 26.4496 19.5991C26.452 19.3932 26.4004 19.1903 26.3 19.0107C26.1875 18.8213 26.0195 18.6713 25.8189 18.5812C25.5435 18.4536 25.2417 18.3941 24.9388 18.4076C24.5589 18.4007 24.1825 18.4812 23.8386 18.643C23.5238 18.794 23.25 19.019 23.0406 19.299C22.8197 19.5929 22.6547 19.925 22.5536 20.2787C22.4388 20.6734 22.3825 21.0827 22.3864 21.4938C22.3785 21.7707 22.4316 22.0459 22.5419 22.2999C22.6461 22.528 22.8267 22.7122 23.0523 22.8207C23.3524 22.9526 23.6785 23.014 24.0058 23.0001C24.2609 23.0035 24.5156 22.9798 24.7657 22.9295C24.9549 22.8902 25.139 22.8289 25.3143 22.7471C25.4464 22.6839 25.5673 22.5994 25.6722 22.497C25.7496 22.4217 25.8079 22.3289 25.8423 22.2264H28.5913C28.4781 22.6056 28.2928 22.9592 28.0456 23.2678C27.7645 23.6245 27.4253 23.9309 27.0423 24.174C26.5928 24.4584 26.1032 24.6736 25.59 24.8124C24.9737 24.9753 24.3381 25.0535 23.7007 25.0448C22.9589 25.066 22.2228 24.9096 21.5532 24.5888C20.9879 24.309 20.5167 23.8692 20.1978 23.3237C19.8859 22.7591 19.729 22.1215 19.7431 21.4761C19.7331 20.7682 19.8731 20.0663 20.1538 19.4167C20.4235 18.8064 20.816 18.2585 21.3068 17.8074C21.8105 17.3557 22.3948 17.0033 23.0289 16.7689C23.7009 16.5187 24.4126 16.3931 25.1294 16.3982C25.8645 16.3788 26.5945 16.5256 27.2652 16.8277C27.8271 17.0901 28.3002 17.5114 28.6265 18.0398C28.9541 18.6001 29.1188 19.2411 29.1018 19.8904C29.1036 20.165 29.085 20.4394 29.046 20.7112C29.0093 20.9796 28.9464 21.2436 28.8583 21.4997H22.6181Z" fill="#F1F2F2"/>
<path id="Vector_4" d="M27.9141 24.6567L29.6743 16.3631H32.4467L30.6865 24.6567H27.9141ZM33.101 24.6567L33.7552 21.6088C33.8725 21.0468 33.9635 20.5938 34.028 20.2437C34.0812 19.9711 34.1116 19.6946 34.119 19.4169C34.1213 19.264 34.0975 19.1117 34.0486 18.9668C34.0056 18.8362 33.9184 18.7248 33.8021 18.652C33.6478 18.5646 33.4715 18.5238 33.2946 18.5343C33.0804 18.5327 32.869 18.5832 32.6785 18.6814C32.4874 18.7853 32.318 18.9251 32.1798 19.0933C32.0272 19.2807 31.9018 19.4887 31.8072 19.7111C31.7012 19.9562 31.6206 20.2116 31.5666 20.4731L31.0767 19.8553C31.2128 19.1803 31.465 18.5343 31.8218 17.9459C32.1406 17.4261 32.5767 16.9887 33.0951 16.6691C33.6234 16.36 34.2262 16.2023 34.8377 16.2131C35.2913 16.1928 35.742 16.2944 36.1433 16.5073C36.4525 16.6865 36.6947 16.9624 36.8327 17.2928C36.975 17.646 37.0458 18.024 37.041 18.4049C37.0385 18.6728 37.017 18.9403 36.9765 19.2051C36.9354 19.4993 36.8708 19.8788 36.7828 20.3113C36.6948 20.7438 36.5833 21.2763 36.4484 21.9118L35.8616 24.6773L33.101 24.6567ZM38.2556 24.6567L38.9157 21.6088C39.0037 21.1939 39.077 20.8438 39.1298 20.5643C39.1826 20.2848 39.2266 20.0495 39.2501 19.8641C39.2747 19.7084 39.2884 19.5511 39.2912 19.3934C39.2942 19.2399 39.2683 19.0872 39.2149 18.9433C39.1657 18.819 39.0756 18.7152 38.9597 18.6491C38.8021 18.5681 38.626 18.5306 38.4492 18.5402C38.235 18.5386 38.0236 18.5891 37.8331 18.6873C37.6427 18.7897 37.475 18.9299 37.3402 19.0992C37.1867 19.2837 37.0612 19.4899 36.9677 19.7111C36.8685 19.9509 36.7909 20.199 36.7359 20.4525L36.2371 19.8347C36.3713 19.1619 36.6215 18.5178 36.9765 17.9312C37.2919 17.4113 37.7276 16.9754 38.2468 16.6602C38.7731 16.3515 39.3739 16.1938 39.9836 16.2042C40.4392 16.1818 40.8923 16.2834 41.2949 16.4984C41.6067 16.6793 41.8525 16.9556 41.9961 17.2869C42.1429 17.642 42.2158 18.0235 42.2103 18.4078C42.2076 18.6774 42.1889 18.9466 42.1545 19.2139C42.1193 19.5081 42.0607 19.8641 41.9785 20.2819C41.8964 20.6997 41.7908 21.2234 41.6617 21.853L41.0309 24.6567H38.2556Z" fill="#F1F2F2"/>
<path id="Vector_5" d="M45.3677 24.904C44.638 24.9211 43.9141 24.7691 43.2525 24.4598C42.6822 24.187 42.2017 23.7562 41.8678 23.2182C41.5368 22.6558 41.3691 22.0118 41.3837 21.3589C41.3737 20.651 41.5137 19.949 41.7944 19.2994C42.0632 18.6868 42.4546 18.136 42.9444 17.6813C43.4416 17.2216 44.0237 16.8638 44.6578 16.6281C45.3286 16.3772 46.0395 16.2516 46.7554 16.2574C47.4863 16.2389 48.2114 16.3909 48.8736 16.7016C49.4437 16.976 49.9241 17.4077 50.2583 17.9461C50.5954 18.5001 50.7684 19.1389 50.7571 19.7878C50.7672 20.502 50.6251 21.2102 50.3405 21.8649C50.0732 22.4784 49.6816 23.0295 49.1904 23.483C48.6919 23.9402 48.1102 24.2968 47.4771 24.5333C46.8025 24.7851 46.0875 24.9107 45.3677 24.904ZM45.6611 22.7652C46.0826 22.7703 46.4944 22.6381 46.8346 22.3886C47.1824 22.1302 47.4557 21.7841 47.6267 21.3853C47.8166 20.9454 47.9116 20.4702 47.9054 19.9908C47.913 19.7002 47.8621 19.411 47.7558 19.1406C47.6601 18.9141 47.4946 18.7244 47.2835 18.5992C47.0333 18.4615 46.7501 18.3953 46.465 18.408C46.1422 18.4033 45.8231 18.477 45.535 18.6228C45.2577 18.7649 45.0145 18.9657 44.8221 19.2112C44.619 19.4757 44.465 19.7747 44.3673 20.0938C44.2595 20.4384 44.2061 20.7977 44.2089 21.1588C44.1837 21.58 44.3073 21.9967 44.558 22.3356C44.6965 22.4867 44.8677 22.6039 45.0584 22.6784C45.2491 22.7528 45.4543 22.7825 45.6582 22.7652H45.6611Z" fill="#F1F2F2"/>
</g>
</g>
</g>
<defs>
<clipPath id="clip0_140_5256">
<rect width="64" height="40" fill="white"/>
</clipPath>
</defs>
</svg>
