<svg width="91" height="57" viewBox="0 0 91 57" fill="none" xmlns="http://www.w3.org/2000/svg">
<g clip-path="url(#clip0_55_4630)">
<path d="M62.6421 0.000586458C56.4499 -0.00798979 50.4268 2.0309 45.5016 5.80288C41.2953 2.59016 36.2798 0.621907 31.0203 0.119901C25.7608 -0.382104 20.4663 0.602091 15.7334 2.96159C11.0006 5.32108 7.0174 8.96211 4.23275 13.4744C1.44811 17.9867 -0.0273437 23.1909 -0.0273438 28.5006C-0.0273437 33.8103 1.44811 39.0145 4.23275 43.5268C7.0174 48.0391 11.0006 51.6801 15.7334 54.0396C20.4663 56.3991 25.7608 57.3833 31.0203 56.8813C36.2798 56.3793 41.2953 54.411 45.5016 51.1983C49.0864 53.9391 53.2692 55.7825 57.7037 56.576C62.1381 57.3695 66.6969 57.0902 71.0027 55.7613C75.3084 54.4324 79.2374 52.0921 82.4645 48.934C85.6916 45.7759 88.124 41.8909 89.5604 37.6004C90.9968 33.3099 91.396 28.7373 90.7248 24.261C90.0536 19.7846 88.3315 15.5333 85.7008 11.8587C83.0701 8.18419 79.6066 5.19208 75.5968 3.13002C71.587 1.06795 67.1463 -0.00478092 62.6421 0.000586458Z" fill="#0B4125"/>
<path d="M20.8904 40.2481C20.6693 40.2481 20.4732 40.2481 20.2438 40.2271L19.7266 40.1936L20.3481 37.3134C20.5169 37.336 20.6868 37.35 20.857 37.3553C21.0573 37.3553 21.2742 37.3846 21.5036 37.3846C21.8421 37.3972 22.1786 37.3267 22.4839 37.1792C22.713 37.0575 22.9069 36.8785 23.047 36.6594C23.1667 36.4768 23.2515 36.2735 23.2973 36.0598L25.9962 23.3191H29.9299L27.2393 36.1479C27.1292 36.6532 26.9583 37.1431 26.7304 37.6068C26.4716 38.1157 26.1125 38.5665 25.675 38.9316C25.1292 39.3751 24.4989 39.7018 23.8229 39.8917C22.8684 40.1561 21.8801 40.2762 20.8904 40.2481ZM28.399 21.6547C27.8851 21.6677 27.3797 21.5213 26.9515 21.2355C26.7575 21.1051 26.6003 20.9266 26.4951 20.7173C26.3898 20.508 26.3402 20.2749 26.3508 20.0406C26.3414 19.6563 26.4636 19.2803 26.697 18.9758C26.9325 18.6773 27.2418 18.446 27.5939 18.305C27.9661 18.1532 28.3644 18.0763 28.7661 18.0786C29.277 18.0687 29.7788 18.2149 30.2052 18.4978C30.4016 18.6253 30.5612 18.8024 30.6681 19.0114C30.775 19.2203 30.8254 19.4538 30.8143 19.6885C30.8182 20.0773 30.6902 20.4558 30.4513 20.7617C30.2177 21.0604 29.9098 21.2918 29.5587 21.4325C29.1866 21.585 28.7882 21.6619 28.3865 21.6589L28.399 21.6547Z" fill="#F1F2F2"/>
<path d="M32.1557 30.6392L33.5948 28.325L37.8997 28.1573L37.4826 28.7359C37.5235 28.5986 37.5542 28.4585 37.5744 28.3166C37.5943 28.1891 37.6041 28.0601 37.6036 27.9309C37.6069 27.6376 37.5335 27.3484 37.3908 27.0925C37.2309 26.8225 36.992 26.6088 36.7067 26.4804C36.3152 26.2986 35.8861 26.2138 35.4553 26.233C34.9152 26.2232 34.38 26.3379 33.891 26.5684C33.4433 26.7836 33.0541 27.1043 32.7563 27.5033C32.4423 27.9221 32.2076 28.3953 32.0639 28.8994C31.9007 29.4617 31.8206 30.0451 31.8261 30.6309C31.815 31.0254 31.8905 31.4176 32.0472 31.7796C32.1955 32.1045 32.4523 32.3671 32.773 32.5216C33.1996 32.7097 33.6634 32.7972 34.1288 32.7774C34.4914 32.7822 34.8536 32.7484 35.2092 32.6767C35.4783 32.6207 35.7401 32.5335 35.9892 32.4168C36.177 32.3267 36.3489 32.2063 36.4981 32.0605C36.6082 31.9531 36.6911 31.8209 36.7401 31.6748H40.6487C40.4877 32.2151 40.2243 32.7191 39.8728 33.1589C39.4732 33.6671 38.9908 34.1037 38.4462 34.4501C37.8071 34.8555 37.111 35.1621 36.3813 35.3599C35.5049 35.592 34.6012 35.7034 33.6949 35.6911C32.6402 35.7212 31.5935 35.4984 30.6414 35.0413C29.8376 34.6425 29.1676 34.0157 28.7142 33.2385C28.2707 32.4339 28.0476 31.5253 28.0676 30.6057C28.0535 29.597 28.2525 28.5967 28.6516 27.671C29.0351 26.8013 29.5932 26.0205 30.291 25.3778C31.0073 24.734 31.8381 24.232 32.7397 23.8978C33.6952 23.5413 34.7072 23.3623 35.7264 23.3696C36.7716 23.342 37.8095 23.5512 38.7632 23.9817C39.5621 24.3556 40.2348 24.956 40.6988 25.709C41.1646 26.5073 41.3987 27.4208 41.3745 28.346C41.3772 28.7373 41.3507 29.1283 41.2953 29.5157C41.243 29.8981 41.1536 30.2744 41.0283 30.6392H32.1557Z" fill="#F1F2F2"/>
<path d="M39.6875 35.137L42.1904 23.3186H46.1324L43.6295 35.137H39.6875ZM47.0626 35.137L47.9928 30.7937C48.1597 29.993 48.289 29.3473 48.3808 28.8484C48.4564 28.46 48.4996 28.066 48.5101 27.6704C48.5134 27.4524 48.4796 27.2354 48.41 27.0289C48.3489 26.8428 48.2249 26.6841 48.0596 26.5803C47.8401 26.4558 47.5895 26.3976 47.3379 26.4126C47.0334 26.4104 46.7328 26.4823 46.4619 26.6223C46.1902 26.7702 45.9494 26.9695 45.7528 27.2092C45.5359 27.4762 45.3576 27.7726 45.223 28.0896C45.0724 28.4388 44.9577 28.8027 44.8809 29.1754L44.1843 28.295C44.3779 27.3332 44.7364 26.4125 45.2439 25.5742C45.6971 24.8334 46.3172 24.2101 47.0543 23.7547C47.8055 23.3142 48.6625 23.0894 49.5321 23.1048C50.177 23.076 50.8178 23.2207 51.3884 23.5241C51.8281 23.7795 52.1724 24.1727 52.3687 24.6434C52.571 25.1467 52.6717 25.6854 52.6649 26.2282C52.6613 26.61 52.6307 26.9911 52.5731 27.3685C52.5147 27.7877 52.4229 28.3286 52.2978 28.9449C52.1726 29.5611 52.0141 30.32 51.8222 31.2255L50.9879 35.1664L47.0626 35.137ZM54.3918 35.137L55.3304 30.7937C55.4556 30.2026 55.5598 29.7037 55.6349 29.3054C55.71 28.9071 55.7726 28.5717 55.806 28.3076C55.8409 28.0856 55.8604 27.8615 55.8644 27.6368C55.8687 27.4181 55.8319 27.2004 55.7559 26.9954C55.6859 26.8182 55.5578 26.6704 55.393 26.5761C55.1689 26.4608 54.9185 26.4073 54.6671 26.421C54.3626 26.4188 54.062 26.4907 53.7911 26.6306C53.5204 26.7766 53.282 26.9763 53.0903 27.2176C52.8721 27.4805 52.6936 27.7743 52.5606 28.0896C52.4196 28.4312 52.3093 28.7848 52.231 29.1461L51.5219 28.2657C51.7127 27.307 52.0684 26.389 52.5731 25.5532C53.0216 24.8124 53.6412 24.1911 54.3793 23.7421C55.1277 23.3021 55.9819 23.0773 56.8488 23.0923C57.4966 23.0602 58.141 23.2051 58.7134 23.5115C59.1568 23.7692 59.5062 24.163 59.7104 24.6351C59.9191 25.1411 60.0228 25.6846 60.0149 26.2324C60.0111 26.6165 59.9846 27.0001 59.9357 27.3811C59.8856 27.8003 59.8022 28.3076 59.6854 28.9029C59.5686 29.4983 59.4184 30.2445 59.2349 31.1417L58.338 35.137H54.3918Z" fill="#F1F2F2"/>
<path d="M64.502 35.4897C63.4644 35.514 62.4351 35.2974 61.4944 34.8566C60.6835 34.4679 60.0003 33.854 59.5255 33.0874C59.0548 32.2859 58.8164 31.3682 58.8372 30.4378C58.823 29.4291 59.022 28.4288 59.4212 27.5031C59.8034 26.6301 60.3599 25.8452 61.0564 25.1973C61.7633 24.5422 62.5909 24.0323 63.4925 23.6964C64.4463 23.3389 65.4572 23.1599 66.4751 23.1682C67.5143 23.1418 68.5453 23.3585 69.4869 23.8012C70.2976 24.1923 70.9805 24.8074 71.4558 25.5746C71.9351 26.3641 72.181 27.2744 72.1649 28.1991C72.1793 29.2168 71.9773 30.2259 71.5726 31.1589C71.1926 32.0332 70.6357 32.8185 69.9374 33.4647C69.2285 34.1162 68.4014 34.6244 67.5013 34.9614C66.542 35.3202 65.5255 35.4992 64.502 35.4897ZM64.9191 32.4418C65.5185 32.449 66.1039 32.2607 66.5877 31.9051C67.0822 31.537 67.4708 31.0437 67.714 30.4755C67.984 29.8486 68.119 29.1714 68.1103 28.4883C68.121 28.0742 68.0487 27.6621 67.8976 27.2767C67.7615 26.954 67.5261 26.6837 67.226 26.5053C66.8702 26.309 66.4676 26.2148 66.0621 26.2328C65.6032 26.2261 65.1495 26.3311 64.7398 26.5389C64.3455 26.7414 63.9997 27.0275 63.7261 27.3773C63.4374 27.7543 63.2184 28.1803 63.0795 28.6351C62.9262 29.1261 62.8502 29.6381 62.8543 30.1527C62.8184 30.753 62.9942 31.3467 63.3507 31.8297C63.5477 32.0449 63.791 32.212 64.0622 32.3181C64.3333 32.4242 64.625 32.4665 64.915 32.4418H64.9191Z" fill="#F1F2F2"/>
</g>
<defs>
<clipPath id="clip0_55_4630">
<rect width="91" height="57" fill="white"/>
</clipPath>
</defs>
</svg>
