<svg width="80" height="34" viewBox="0 0 80 34" fill="none" xmlns="http://www.w3.org/2000/svg">
<g id="Asset 2 1" clip-path="url(#clip0_55_4593)">
<g id="Layer 2">
<g id="Layer 1">
<path id="Vector" d="M1.77215 34.0012C1.43843 34.0012 1.10472 34.0012 0.788262 33.9664L0 33.9141L0.943613 29.4636C1.15075 29.4985 1.40391 29.5276 1.71461 29.5566C2.02532 29.5857 2.35328 29.5973 2.70426 29.5973C3.22094 29.6193 3.73497 29.5115 4.20023 29.2835C4.55095 29.092 4.84637 28.8117 5.05754 28.4701C5.24365 28.1929 5.37278 27.8807 5.43728 27.5522L9.56272 8.01901H15.5351L11.4557 27.7032C11.2866 28.4776 11.0258 29.2286 10.6789 29.9401C10.2845 30.7148 9.73833 31.4007 9.07365 31.9561C8.23916 32.6372 7.27594 33.1393 6.24281 33.4319C4.78877 33.8444 3.28208 34.0363 1.77215 34.0012ZM13.2336 5.49167C12.4511 5.51491 11.6809 5.29154 11.0299 4.85258C10.7328 4.65397 10.4918 4.38094 10.3305 4.06017C10.1691 3.73939 10.0929 3.38183 10.1093 3.02243C10.0907 2.42798 10.2756 1.84523 10.6329 1.3724C10.9866 0.919749 11.4505 0.567434 11.9793 0.349841C12.5474 0.116306 13.1554 -0.00214075 13.7687 0.00124257C14.5481 -0.018719 15.315 0.202238 15.9666 0.63453C16.2647 0.831097 16.507 1.10273 16.6694 1.42265C16.8318 1.74256 16.9089 2.09971 16.893 2.45886C16.9097 3.05483 16.725 3.63878 16.3694 4.11471C16.0145 4.57247 15.5461 4.92727 15.0115 5.14307C14.4471 5.37526 13.8431 5.49369 13.2336 5.49167Z" fill="white"/>
<path id="Vector_2" d="M18.9882 19.262L21.1688 15.6888L27.7281 15.4332L27.0894 16.3221C27.1506 16.1124 27.1987 15.8989 27.2333 15.683C27.2603 15.4906 27.2737 15.2964 27.2735 15.102C27.2732 14.6611 27.1623 14.2274 26.9513 13.8413C26.7139 13.4195 26.3546 13.081 25.9214 12.871C25.3292 12.5947 24.6802 12.4652 24.0284 12.4934C23.2041 12.476 22.387 12.6509 21.6406 13.0046C20.9599 13.3368 20.368 13.8289 19.9145 14.4397C19.4367 15.082 19.078 15.8064 18.8558 16.5778C18.6072 17.4402 18.4851 18.3347 18.4933 19.2329C18.4827 19.8317 18.5984 20.4258 18.8328 20.9759C19.0521 21.4839 19.4439 21.896 19.9375 22.1379C20.5892 22.4266 21.298 22.5598 22.0089 22.5272C22.5612 22.5365 23.1129 22.4858 23.6544 22.3761C24.0657 22.2903 24.4654 22.1557 24.8455 21.9752C25.1333 21.8392 25.396 21.6545 25.6222 21.4291C25.792 21.2692 25.9204 21.0697 25.9962 20.8481H31.9513C31.7058 21.6764 31.3054 22.4495 30.7718 23.1256C30.1606 23.9037 29.4233 24.5716 28.5911 25.101C27.6167 25.7255 26.5534 26.1957 25.4381 26.4954C24.1015 26.8509 22.7235 27.0229 21.3414 27.0067C19.7333 27.0512 18.1378 26.7087 16.6867 26.0074C15.4587 25.3951 14.4348 24.4339 13.7407 23.2418C13.05 22.0016 12.7004 20.5974 12.7281 19.1748C12.7112 17.6438 13.0171 16.1268 13.6257 14.7244C14.2021 13.3903 15.0488 12.1929 16.1113 11.2093C17.1987 10.2095 18.4665 9.43039 19.8455 8.91441C21.3049 8.36606 22.851 8.09044 24.4082 8.10101C25.9931 8.06081 27.5666 8.38256 29.0112 9.04223C30.2327 9.61093 31.2614 10.5304 31.9686 11.6858C32.6812 12.9177 33.038 14.3266 32.9985 15.7528C32.9919 16.3579 32.9419 16.9618 32.8489 17.5597C32.7692 18.1527 32.6324 18.7365 32.4404 19.3026L18.9882 19.262Z" fill="white"/>
<path id="Vector_3" d="M30.4531 26.1459L34.2736 8.03039H40.2748L36.4715 26.1459H30.4531ZM41.7074 26.1459L43.1516 19.4993C43.4105 18.2734 43.6119 17.2741 43.727 16.513C43.8456 15.9176 43.913 15.3131 43.9284 14.7061C43.9347 14.3725 43.8841 14.0404 43.7788 13.7242C43.6791 13.4397 43.4889 13.1966 43.2379 13.0328C42.8989 12.8444 42.5136 12.7577 42.1275 12.783C41.6629 12.7796 41.2045 12.8913 40.7926 13.1083C40.3749 13.3307 40.0037 13.6326 39.6994 13.9972C39.3713 14.4085 39.0985 14.8617 38.8881 15.3452C38.6596 15.8802 38.4842 16.4368 38.3645 17.0068L37.3116 15.6879C37.605 14.2045 38.1542 12.7847 38.9341 11.4931C39.6262 10.3583 40.5721 9.40313 41.6959 8.70435C42.8318 8.02154 44.1312 7.66589 45.4531 7.67598C46.451 7.62209 47.4449 7.84086 48.33 8.30927C49.0012 8.69954 49.5269 9.30175 49.826 10.0232C50.1344 10.7944 50.2869 11.6201 50.2748 12.4518C50.2683 13.0353 50.2222 13.6177 50.1367 14.1948C50.0446 14.8629 49.9065 15.6647 49.7166 16.6117C49.5268 17.5588 49.2794 18.7208 48.9859 20.0977L47.6856 26.1459H41.7074ZM52.8927 26.1459L54.3254 19.4935C54.5133 18.5794 54.6687 17.8183 54.7914 17.2102C54.9065 16.5943 54.9986 16.083 55.0504 15.6821C55.1028 15.3398 55.1316 14.9943 55.1367 14.648C55.1442 14.3134 55.0895 13.9803 54.9756 13.6661C54.8656 13.3861 54.662 13.1538 54.4002 13.0095C54.0631 12.8408 53.6885 12.7627 53.3127 12.783C52.8481 12.7789 52.3895 12.8906 51.9779 13.1083C51.5653 13.331 51.2013 13.6353 50.9077 14.003C50.5823 14.4097 50.3168 14.8618 50.1194 15.3452C49.9009 15.8683 49.7314 16.411 49.6131 16.9661L48.5314 15.6182C48.8241 14.1464 49.3672 12.737 50.1367 11.4525C50.8223 10.3191 51.7675 9.36866 52.8927 8.68111C54.0327 8.00633 55.3344 7.66066 56.6557 7.68179C57.6542 7.62823 58.6484 7.8491 59.5325 8.32089C60.2096 8.72391 60.7417 9.3345 61.0515 10.0639C61.3723 10.838 61.531 11.6708 61.5176 12.5099C61.5123 13.0926 61.4738 13.6746 61.4025 14.2529C61.3219 14.8978 61.1954 15.6705 61.017 16.5769C60.8386 17.4832 60.6085 18.6336 60.3208 20.0222L58.9226 26.1459H52.8927Z" fill="white"/>
<path id="Vector_4" d="M68.3237 26.6921C66.7356 26.7344 65.1595 26.4022 63.7208 25.7218C62.4854 25.1251 61.4451 24.1835 60.7231 23.0086C60.0012 21.7795 59.6363 20.3702 59.6701 18.9416C59.6532 17.3981 59.957 15.8681 60.5619 14.4505C61.1434 13.1127 61.9915 11.9103 63.0533 10.918C64.1316 9.90762 65.3939 9.11833 66.7702 8.59403C68.2275 8.04512 69.7718 7.76947 71.3272 7.78063C72.9152 7.74026 74.4908 8.07238 75.9302 8.7509C77.1676 9.34907 78.2112 10.29 78.9394 11.4642C79.6563 12.6903 80.0153 14.0962 79.9751 15.5195C79.9935 17.0794 79.6857 18.6256 79.0717 20.0571C78.487 21.396 77.635 22.5985 76.5689 23.5896C75.4878 24.5891 74.2257 25.3684 72.8519 25.8845C71.4037 26.4292 69.8692 26.7029 68.3237 26.6921ZM68.9509 22.0441C69.8738 22.0618 70.777 21.7741 71.5228 21.2249C72.2811 20.663 72.877 19.9068 73.2489 19.0346C73.6647 18.0752 73.8726 17.0372 73.8588 15.9901C73.8767 15.3543 73.765 14.7215 73.5309 14.1309C73.3271 13.6223 72.9631 13.1956 72.4952 12.9167C71.9529 12.6178 71.3404 12.4732 70.7231 12.4983C70.0221 12.4886 69.3293 12.65 68.7035 12.9689C68.1006 13.2823 67.5724 13.7244 67.1557 14.2646C66.7171 14.838 66.382 15.4851 66.1661 16.1761C65.9302 16.9276 65.8117 17.7117 65.8151 18.5C65.7623 19.4258 66.0331 20.3408 66.5804 21.0855C66.878 21.4146 67.2466 21.6701 67.6576 21.8323C68.0687 21.9945 68.5112 22.059 68.9509 22.0209V22.0441Z" fill="white"/>
</g>
</g>
</g>
<defs>
<clipPath id="clip0_55_4593">
<rect width="80" height="34" fill="white"/>
</clipPath>
</defs>
</svg>
