<svg width="29" height="29" viewBox="0 0 29 29" fill="none" xmlns="http://www.w3.org/2000/svg">
<g id="pen-to-square" clip-path="url(#clip0_77_4059)">
<path id="pen-to-square_2" d="M28.0777 2.01258C29.3318 3.26496 29.3318 5.29557 28.0777 6.54796L26.3597 8.27163L20.7476 2.66082L22.4713 0.939437C23.7254 -0.313146 25.7527 -0.313146 27.0068 0.939437L28.0777 2.01258ZM9.87271 13.54L19.4534 3.95615L25.0655 9.56582L15.4791 19.1462C15.1298 19.5013 14.7003 19.7647 14.2249 19.925L9.1397 21.6201C8.59567 21.7804 8.10318 21.6544 7.73095 21.2364C7.36445 20.9157 7.23846 20.3717 7.39881 19.8792L9.09389 14.7941C9.25423 14.3188 9.51766 13.8893 9.87271 13.54ZM10.9951 3.31249C12.0087 3.31249 12.8277 4.18464 12.8277 5.14497C12.8277 6.21009 12.0087 6.97744 10.9951 6.97744H5.49756C4.48567 6.97744 3.66504 7.84787 3.66504 8.80992V23.5213C3.66504 24.5349 4.48567 25.3537 5.49756 25.3537H20.1577C21.1713 25.3537 21.9903 24.5349 21.9903 23.5213V17.9723C21.9903 17.0102 22.8092 16.1398 23.8228 16.1398C24.8364 16.1398 25.6553 17.0102 25.6553 17.9723V23.5213C25.6553 26.5563 23.1928 29.0187 20.1577 29.0187H5.49756C2.46131 29.0187 0 26.5563 0 23.5213V8.80992C0 5.77488 2.46131 3.31249 5.49756 3.31249H10.9951Z" fill="#575757"/>
</g>
<defs>
<clipPath id="clip0_77_4059">
<rect width="29" height="29" fill="white"/>
</clipPath>
</defs>
</svg>
