<svg width="27" height="25" viewBox="0 0 27 25" fill="none" xmlns="http://www.w3.org/2000/svg">
<path d="M17.9732 7.61032L24.9353 8.57938C25.5118 8.65709 25.9963 9.04105 26.1804 9.56672C26.3645 10.097 26.2144 10.6729 25.7977 11.066L20.7493 15.7376L21.9412 22.4387C22.0381 22.9873 21.8007 23.5449 21.3162 23.8695C20.8365 24.194 20.2019 24.2351 19.6835 23.9746L13.4626 20.8434L7.24663 23.9746C6.72338 24.2351 6.0887 24.194 5.60906 23.8695C5.12942 23.5449 4.88717 22.9873 4.98891 22.4387L6.18075 15.7376L1.13141 11.066C0.714276 10.6729 0.566015 10.097 0.749153 9.56672C0.931802 9.04105 1.41485 8.65709 1.99575 8.57938L8.95203 7.61032L12.0721 1.56148C12.3289 1.05794 12.8715 0.738281 13.4626 0.738281C14.0585 0.738281 14.6012 1.05794 14.8579 1.56148L17.9732 7.61032Z" fill="#34C015"/>
</svg>
