<svg width="27" height="25" viewBox="0 0 27 25" fill="none" xmlns="http://www.w3.org/2000/svg">
<path id="star-solid" opacity="0.15" d="M17.7545 7.61032L24.7166 8.57938C25.2931 8.65709 25.7776 9.04105 25.9617 9.56672C26.1458 10.097 25.9956 10.6729 25.5789 11.066L20.5306 15.7376L21.7224 22.4387C21.8193 22.9873 21.5819 23.5449 21.0974 23.8695C20.6178 24.194 19.9831 24.2351 19.4647 23.9746L13.2439 20.8434L7.02788 23.9746C6.50463 24.2351 5.86995 24.194 5.39031 23.8695C4.91067 23.5449 4.66842 22.9873 4.77016 22.4387L5.962 15.7376L0.912663 11.066C0.495526 10.6729 0.347265 10.097 0.530403 9.56672C0.713052 9.04105 1.1961 8.65709 1.777 8.57938L8.73328 7.61032L11.8534 1.56148C12.1102 1.05794 12.6528 0.738281 13.2439 0.738281C13.8398 0.738281 14.3824 1.05794 14.6392 1.56148L17.7545 7.61032Z" fill="black"/>
</svg>
